<svg width="172" height="92" viewBox="0 0 172 92" fill="none" xmlns="http://www.w3.org/2000/svg">
<path d="M86 92C85.2145 92 84.4372 91.8405 83.7153 91.531C82.9933 91.2216 82.3417 90.7688 81.8 90.2L1.8 10.2C1.24845 9.64845 0.810934 8.99366 0.512436 8.27303C0.213938 7.55239 0.0603027 6.78001 0.0603027 6C0.0603027 5.21999 0.213938 4.44761 0.512436 3.72697C0.810934 3.00634 1.24845 2.35155 1.8 1.8C2.35155 1.24845 3.00634 0.810934 3.72697 0.512436C4.44761 0.213938 5.21999 0.0603027 6 0.0603027C6.78001 0.0603027 7.55239 0.213938 8.27303 0.512436C8.99366 0.810934 9.64845 1.24845 10.2 1.8L86 77.5L161.8 1.8C162.914 0.686094 164.425 0.0603027 166 0.0603027C167.575 0.0603027 169.086 0.686094 170.2 1.8C171.314 2.91391 171.94 4.42469 171.94 6C171.94 7.57531 171.314 9.08609 170.2 10.2L90.2 90.2C89.6583 90.7688 89.0067 91.2216 88.2847 91.531C87.5628 91.8405 86.7855 92 86 92V92Z" fill="#444444"/>
</svg>
