<svg width="11" height="11" viewBox="0 0 11 11" fill="none" xmlns="http://www.w3.org/2000/svg">
<path fill-rule="evenodd" clip-rule="evenodd" d="M8 4.50003C8 4.95966 7.90947 5.41478 7.73358 5.83942C7.55769 6.26406 7.29988 6.6499 6.97487 6.9749C6.64987 7.29991 6.26403 7.55772 5.83939 7.73361C5.41475 7.9095 4.95963 8.00003 4.5 8.00003C4.04037 8.00003 3.58525 7.9095 3.16061 7.73361C2.73597 7.55772 2.35013 7.29991 2.02513 6.9749C1.70012 6.6499 1.44231 6.26406 1.26642 5.83942C1.09053 5.41478 1 4.95966 1 4.50003C1 3.57177 1.36875 2.68153 2.02513 2.02516C2.6815 1.36878 3.57174 1.00003 4.5 1.00003C5.42826 1.00003 6.3185 1.36878 6.97487 2.02516C7.63125 2.68153 8 3.57177 8 4.50003ZM7.309 8.01603C6.41042 8.73391 5.27106 9.08049 4.12493 8.98457C2.97881 8.88865 1.9129 8.35753 1.14614 7.50027C0.379375 6.64302 -0.0300463 5.52471 0.00195899 4.37502C0.0339643 3.22533 0.504967 2.13153 1.31824 1.31827C2.1315 0.504997 3.2253 0.0339939 4.37499 0.00198856C5.52468 -0.0300168 6.64299 0.379405 7.50025 1.14617C8.3575 1.91293 8.88862 2.97883 8.98454 4.12496C9.08046 5.27109 8.73388 6.41045 8.016 7.30903L10.854 10.146C10.9005 10.1925 10.9374 10.2477 10.9625 10.3084C10.9877 10.3692 11.0006 10.4343 11.0006 10.5C11.0006 10.5658 10.9877 10.6309 10.9625 10.6916C10.9374 10.7524 10.9005 10.8075 10.854 10.854C10.8075 10.9005 10.7523 10.9374 10.6916 10.9626C10.6308 10.9877 10.5657 11.0007 10.5 11.0007C10.4343 11.0007 10.3692 10.9877 10.3084 10.9626C10.2477 10.9374 10.1925 10.9005 10.146 10.854L7.31 8.01603H7.309Z" fill="#707070"/>
</svg>
